<svg width="374" height="310" viewBox="0 0 374 310" fill="none" xmlns="http://www.w3.org/2000/svg">
<rect y="10" width="374" height="67" rx="10" fill="#E5E5E5"/>
<rect y="60" width="374" height="250" rx="10" fill="white"/>
<rect x="186" width="188" height="77" rx="10" fill="white"/>
<path d="M215 69L185.5 6L178 69H215Z" fill="white"/>
<path d="M68.216 26.808L69.416 27.064C69.32 27.6933 69.1867 28.3227 69.016 28.952C68.8453 29.5707 68.6107 30.1467 68.312 30.68C68.024 31.2027 67.64 31.6453 67.16 32.008L66.12 31.304C66.5573 30.984 66.9147 30.584 67.192 30.104C67.4693 29.624 67.688 29.1013 67.848 28.536C68.0187 27.9707 68.1413 27.3947 68.216 26.808ZM78.264 26.776L79.56 27.288C79.304 27.7893 79.0213 28.312 78.712 28.856C78.4133 29.4 78.1093 29.928 77.8 30.44C77.5013 30.9413 77.2133 31.384 76.936 31.768L75.928 31.288C76.1947 30.8933 76.472 30.4347 76.76 29.912C77.0587 29.3893 77.336 28.856 77.592 28.312C77.8587 27.7573 78.0827 27.2453 78.264 26.776ZM72.936 23.784H73.576V28.968C73.576 29.2773 73.6133 29.6507 73.688 30.088C73.7627 30.5147 73.8907 30.984 74.072 31.496C74.2533 31.9973 74.504 32.5147 74.824 33.048C75.1547 33.5707 75.5653 34.088 76.056 34.6C76.5467 35.112 77.1387 35.592 77.832 36.04C78.5253 36.4773 79.336 36.8613 80.264 37.192C80.1787 37.2773 80.0827 37.384 79.976 37.512C79.88 37.6507 79.784 37.7893 79.688 37.928C79.592 38.0667 79.512 38.1893 79.448 38.296C78.52 37.944 77.7093 37.528 77.016 37.048C76.3227 36.568 75.7307 36.0613 75.24 35.528C74.7493 34.9947 74.344 34.4613 74.024 33.928C73.704 33.3947 73.4587 32.8987 73.288 32.44C73.1173 31.9813 72.9947 31.6027 72.92 31.304C72.856 31.6133 72.7387 31.992 72.568 32.44C72.408 32.888 72.1733 33.3733 71.864 33.896C71.5653 34.4187 71.176 34.9467 70.696 35.48C70.2267 36.0133 69.6507 36.52 68.968 37C68.296 37.4907 67.5067 37.9227 66.6 38.296C66.5573 38.2107 66.4827 38.104 66.376 37.976C66.28 37.8587 66.1787 37.736 66.072 37.608C65.9653 37.48 65.8693 37.3733 65.784 37.288C66.8613 36.8827 67.7733 36.3973 68.52 35.832C69.2773 35.256 69.9013 34.6533 70.392 34.024C70.8827 33.384 71.2667 32.7493 71.544 32.12C71.8213 31.4907 72.0133 30.904 72.12 30.36C72.2267 29.816 72.28 29.3573 72.28 28.984V23.784H72.936ZM82.232 25.88H95.784V27.048H82.232V25.88ZM81.976 34.056H96.072V35.24H81.976V34.056ZM89.112 28.04H90.376V38.28H89.112V28.04ZM83.688 31.864C83.6667 31.768 83.6293 31.6453 83.576 31.496C83.5227 31.3467 83.464 31.192 83.4 31.032C83.3467 30.872 83.2933 30.7333 83.24 30.616C83.4107 30.5733 83.5867 30.44 83.768 30.216C83.9493 29.992 84.1467 29.704 84.36 29.352C84.4773 29.1707 84.6427 28.888 84.856 28.504C85.08 28.1093 85.3253 27.64 85.592 27.096C85.8693 26.552 86.1413 25.9707 86.408 25.352C86.6747 24.7227 86.9147 24.0987 87.128 23.48L88.488 23.848C88.1253 24.744 87.7253 25.6347 87.288 26.52C86.8507 27.3947 86.4027 28.2267 85.944 29.016C85.4853 29.7947 85.0213 30.4933 84.552 31.112V31.16C84.552 31.16 84.5093 31.1867 84.424 31.24C84.3387 31.2827 84.2373 31.3413 84.12 31.416C84.0027 31.48 83.9013 31.5547 83.816 31.64C83.7307 31.7147 83.688 31.7893 83.688 31.864ZM83.688 31.864V30.904L84.456 30.488H94.728V31.624H85.416C85.096 31.624 84.8133 31.6347 84.568 31.656C84.3333 31.6773 84.1413 31.704 83.992 31.736C83.8427 31.768 83.7413 31.8107 83.688 31.864ZM107.336 35.288L108.2 34.68C108.637 34.904 109.096 35.1653 109.576 35.464C110.067 35.7627 110.531 36.0613 110.968 36.36C111.416 36.6587 111.784 36.9307 112.072 37.176L111.144 37.896C110.877 37.6507 110.531 37.3733 110.104 37.064C109.677 36.7653 109.219 36.456 108.728 36.136C108.248 35.816 107.784 35.5333 107.336 35.288ZM99.8 31.16H110.232V32.12H99.8V31.16ZM97.864 33.224H112.184V34.232H97.864V33.224ZM98.04 24.2H111.864V25.192H98.04V24.2ZM104.408 33.416H105.624V37C105.624 37.32 105.581 37.56 105.496 37.72C105.411 37.8907 105.245 38.0187 105 38.104C104.765 38.1893 104.451 38.2427 104.056 38.264C103.672 38.2853 103.192 38.296 102.616 38.296C102.595 38.136 102.547 37.9547 102.472 37.752C102.397 37.5493 102.317 37.368 102.232 37.208C102.691 37.2187 103.091 37.224 103.432 37.224C103.773 37.2347 104.003 37.2347 104.12 37.224C104.237 37.224 104.312 37.2027 104.344 37.16C104.387 37.128 104.408 37.064 104.408 36.968V33.416ZM101.336 34.632L102.456 35.016C102.136 35.4 101.763 35.7787 101.336 36.152C100.909 36.5253 100.461 36.872 99.992 37.192C99.5333 37.512 99.08 37.7893 98.632 38.024C98.568 37.9493 98.4773 37.8587 98.36 37.752C98.2533 37.656 98.1413 37.56 98.024 37.464C97.9067 37.368 97.8 37.288 97.704 37.224C98.3867 36.9147 99.0587 36.536 99.72 36.088C100.381 35.6293 100.92 35.144 101.336 34.632ZM100.12 27.352V29.192H109.912V27.352H100.12ZM99 26.424H111.096V30.12H99V26.424ZM102.552 24.568H103.656V29.688H102.552V24.568ZM106.2 24.568H107.336V29.688H106.2V24.568Z" fill="black"/>
<line x1="279" y1="41.5" x2="310" y2="41.5" stroke="#5DA83A"/>
<line x1="29" y1="132.85" x2="350" y2="132.85" stroke="#838383" stroke-width="0.3"/>
<line x1="29" y1="188.85" x2="350" y2="188.85" stroke="#838383" stroke-width="0.3"/>
<path d="M268.072 18.504H276.824V19.752H268.072V18.504ZM276.328 18.504H277.544C277.555 20.2853 277.608 21.9173 277.704 23.4C277.811 24.872 277.981 26.1467 278.216 27.224C278.461 28.3013 278.787 29.1333 279.192 29.72C279.597 30.3067 280.115 30.6 280.744 30.6C280.979 30.5893 281.144 30.3493 281.24 29.88C281.336 29.4 281.4 28.7067 281.432 27.8C281.571 27.9387 281.725 28.0773 281.896 28.216C282.077 28.344 282.237 28.44 282.376 28.504C282.323 29.3467 282.237 30.008 282.12 30.488C282.003 30.968 281.827 31.3093 281.592 31.512C281.368 31.7147 281.069 31.8213 280.696 31.832C279.8 31.832 279.069 31.5227 278.504 30.904C277.949 30.2747 277.517 29.384 277.208 28.232C276.909 27.0693 276.696 25.672 276.568 24.04C276.44 22.3973 276.36 20.552 276.328 18.504ZM280.808 19.72L281.912 20.312C281.507 20.7387 281.059 21.1813 280.568 21.64C280.088 22.088 279.603 22.52 279.112 22.936C278.621 23.352 278.157 23.7147 277.72 24.024L276.84 23.464C277.267 23.144 277.725 22.7707 278.216 22.344C278.707 21.9067 279.181 21.4587 279.64 21C280.099 20.5413 280.488 20.1147 280.808 19.72ZM276.936 23.976L277.544 23.128C278.056 23.384 278.6 23.6773 279.176 24.008C279.763 24.328 280.312 24.6587 280.824 25C281.347 25.3307 281.768 25.6347 282.088 25.912L281.448 26.872C281.128 26.5733 280.712 26.2533 280.2 25.912C279.699 25.5707 279.16 25.2293 278.584 24.888C278.008 24.5467 277.459 24.2427 276.936 23.976ZM291.672 18.472H295.672V19.608H291.672V18.472ZM290.968 18.472H292.136V23.608C292.136 24.2693 292.104 24.984 292.04 25.752C291.976 26.5093 291.853 27.2773 291.672 28.056C291.501 28.8347 291.24 29.5867 290.888 30.312C290.536 31.0267 290.072 31.6827 289.496 32.28C289.443 32.2053 289.357 32.1147 289.24 32.008C289.133 31.912 289.016 31.816 288.888 31.72C288.771 31.624 288.669 31.5547 288.584 31.512C289.117 30.9467 289.544 30.3387 289.864 29.688C290.184 29.0267 290.424 28.3493 290.584 27.656C290.744 26.952 290.845 26.2587 290.888 25.576C290.941 24.8827 290.968 24.2267 290.968 23.608V18.472ZM295.144 18.472H296.328V30.008C296.328 30.264 296.333 30.472 296.344 30.632C296.365 30.7813 296.397 30.872 296.44 30.904C296.525 30.968 296.621 31 296.728 31C296.781 31 296.851 31 296.936 31C297.032 31 297.117 31 297.192 31C297.341 31 297.448 30.9627 297.512 30.888C297.555 30.8347 297.587 30.7707 297.608 30.696C297.64 30.6107 297.661 30.472 297.672 30.28C297.693 30.0987 297.709 29.8053 297.72 29.4C297.731 28.9947 297.736 28.5253 297.736 27.992C297.864 28.1093 298.013 28.216 298.184 28.312C298.355 28.3973 298.515 28.4613 298.664 28.504C298.664 28.8027 298.653 29.1227 298.632 29.464C298.621 29.7947 298.605 30.0987 298.584 30.376C298.573 30.6533 298.557 30.8613 298.536 31C298.461 31.4373 298.312 31.736 298.088 31.896C297.971 31.9707 297.837 32.024 297.688 32.056C297.549 32.0987 297.4 32.12 297.24 32.12C297.123 32.12 296.984 32.12 296.824 32.12C296.664 32.12 296.531 32.12 296.424 32.12C296.275 32.12 296.115 32.0933 295.944 32.04C295.773 31.9973 295.629 31.9227 295.512 31.816C295.416 31.7307 295.341 31.6293 295.288 31.512C295.235 31.3947 295.197 31.2133 295.176 30.968C295.155 30.712 295.144 30.36 295.144 29.912V18.472ZM283.832 20.984H290.024V22.136H283.832V20.984ZM286.488 17.56H287.656V32.264H286.488V17.56ZM286.44 21.704L287.224 21.96C287.075 22.6107 286.888 23.2827 286.664 23.976C286.44 24.6693 286.189 25.3467 285.912 26.008C285.635 26.6693 285.341 27.2827 285.032 27.848C284.723 28.4133 284.403 28.8933 284.072 29.288C284.008 29.128 283.912 28.9467 283.784 28.744C283.656 28.5307 283.544 28.3493 283.448 28.2C283.747 27.8373 284.045 27.4107 284.344 26.92C284.653 26.4187 284.936 25.8747 285.192 25.288C285.459 24.7013 285.699 24.104 285.912 23.496C286.125 22.888 286.301 22.2907 286.44 21.704ZM287.544 23.464C287.661 23.5707 287.837 23.752 288.072 24.008C288.317 24.264 288.579 24.5467 288.856 24.856C289.133 25.1653 289.384 25.4533 289.608 25.72C289.843 25.976 290.008 26.1573 290.104 26.264L289.352 27.256C289.235 27.064 289.069 26.824 288.856 26.536C288.653 26.2373 288.429 25.928 288.184 25.608C287.939 25.2773 287.704 24.9733 287.48 24.696C287.256 24.4187 287.075 24.2 286.936 24.04L287.544 23.464ZM309.336 29.288L310.2 28.68C310.637 28.904 311.096 29.1653 311.576 29.464C312.067 29.7627 312.531 30.0613 312.968 30.36C313.416 30.6587 313.784 30.9307 314.072 31.176L313.144 31.896C312.877 31.6507 312.531 31.3733 312.104 31.064C311.677 30.7653 311.219 30.456 310.728 30.136C310.248 29.816 309.784 29.5333 309.336 29.288ZM301.8 25.16H312.232V26.12H301.8V25.16ZM299.864 27.224H314.184V28.232H299.864V27.224ZM300.04 18.2H313.864V19.192H300.04V18.2ZM306.408 27.416H307.624V31C307.624 31.32 307.581 31.56 307.496 31.72C307.411 31.8907 307.245 32.0187 307 32.104C306.765 32.1893 306.451 32.2427 306.056 32.264C305.672 32.2853 305.192 32.296 304.616 32.296C304.595 32.136 304.547 31.9547 304.472 31.752C304.397 31.5493 304.317 31.368 304.232 31.208C304.691 31.2187 305.091 31.224 305.432 31.224C305.773 31.2347 306.003 31.2347 306.12 31.224C306.237 31.224 306.312 31.2027 306.344 31.16C306.387 31.128 306.408 31.064 306.408 30.968V27.416ZM303.336 28.632L304.456 29.016C304.136 29.4 303.763 29.7787 303.336 30.152C302.909 30.5253 302.461 30.872 301.992 31.192C301.533 31.512 301.08 31.7893 300.632 32.024C300.568 31.9493 300.477 31.8587 300.36 31.752C300.253 31.656 300.141 31.56 300.024 31.464C299.907 31.368 299.8 31.288 299.704 31.224C300.387 30.9147 301.059 30.536 301.72 30.088C302.381 29.6293 302.92 29.144 303.336 28.632ZM302.12 21.352V23.192H311.912V21.352H302.12ZM301 20.424H313.096V24.12H301V20.424ZM304.552 18.568H305.656V23.688H304.552V18.568ZM308.2 18.568H309.336V23.688H308.2V18.568Z" fill="#5DA83A"/>
</svg>
